# xmcd
#
# Track frame offsets:
#	150
#	14416
#	35237
#	53538
#	64699
#	81489
#	93299
#	110935
#
# Disc length: 1773 seconds
#
# Revision: 0
# Processed by: cddbd v1.5PL3 Copyright (c) Steve Scherf et al.
# Submitted via: dBpowerAMP V4.0
#
DISCID=6a06eb08
DTITLE=Tim Hadler - The Last Hank
DYEAR=2001
DGENRE=Country
TTITLE0=The Last Hank
TTITLE1=Son
TTITLE2=Love's Got A Hold On Me
TTITLE3=Down The River
TTITLE4=Cheatin' Line
TTITLE5=Play Lady Down On Love
TTITLE6=The Gospel Medley
TTITLE7=The American Trilogy
EXTD=
EXTT0=
EXTT1=
EXTT2=
EXTT3=
EXTT4=
EXTT5=
EXTT6=
EXTT7=
PLAYORDER=
